<?xml version="1.0" encoding="UTF-8" standalone="no"?>
<!DOCTYPE svg PUBLIC "-//W3C//DTD SVG 1.1//EN"
 "http://www.w3.org/Graphics/SVG/1.1/DTD/svg11.dtd">
<!-- Generated by graphviz version 2.43.0 (0)
 -->
<!-- Title: %3 Pages: 1 -->
<svg width="950pt" height="458pt"
 viewBox="0.00 0.00 950.00 458.00" xmlns="http://www.w3.org/2000/svg" xmlns:xlink="http://www.w3.org/1999/xlink">
<g id="graph0" class="graph" transform="scale(1 1) rotate(0) translate(4 454)">
<title>%3</title>
<polygon fill="#ffffff" stroke="transparent" points="-4,4 -4,-454 946,-454 946,4 -4,4"/>
<!-- SL_MBT_DIA_BI_EVR_2_ -->
<g id="node1" class="node">
<title>SL_MBT_DIA_BI_EVR_2_</title>
<polygon fill="#ffffff" stroke="black" points="170,-93.5 0,-93.5 0,-24.5 170,-24.5 170,-93.5"/>
<polygon fill="none" stroke="black" points="0,-70 0,-93 170,-93 170,-70 0,-70"/>
<text text-anchor="start" x="4" y="-77.8" font-family="arial" font-size="14.00">SL_MBT_DIA_BI_EVR_2_</text>
<polygon fill="none" stroke="black" points="0,-47 0,-70 124,-70 124,-47 0,-47"/>
<text text-anchor="start" x="8" y="-54.8" font-family="arial" font-size="14.00">PCIe EVR 300DC</text>
<polygon fill="none" stroke="black" points="124,-47 124,-70 170,-70 170,-47 124,-47"/>
<text text-anchor="start" x="131.5" y="-54.8" font-family="arial" font-size="14.00">1&#45;pin</text>
<polygon fill="none" stroke="black" points="0,-24 0,-47 91,-47 91,-24 0,-24"/>
<text text-anchor="start" x="35.5" y="-31.8" font-family="arial" font-size="14.00">OF</text>
<polygon fill="none" stroke="black" points="91,-24 91,-47 170,-47 170,-24 91,-24"/>
<text text-anchor="start" x="126.5" y="-31.8" font-family="arial" font-size="14.00">1</text>
</g>
<!-- OF1 -->
<g id="node5" class="node">
<title>OF1</title>
<polygon fill="#ffffff" stroke="black" points="717,-134 314,-134 314,0 717,0 717,-134"/>
<polygon fill="none" stroke="black" points="314.5,-111 314.5,-134 717.5,-134 717.5,-111 314.5,-111"/>
<text text-anchor="start" x="502" y="-118.8" font-family="arial" font-size="14.00">OF1</text>
<polygon fill="none" stroke="black" points="314.5,-88 314.5,-111 528.5,-111 528.5,-88 314.5,-88"/>
<text text-anchor="start" x="402" y="-95.8" font-family="arial" font-size="14.00">LC/LC</text>
<polygon fill="none" stroke="black" points="528.5,-88 528.5,-111 717.5,-111 717.5,-88 528.5,-88"/>
<text text-anchor="start" x="615.5" y="-95.8" font-family="arial" font-size="14.00">2x</text>
<text text-anchor="start" x="412.5" y="-74.8" font-family="arial" font-size="14.00"> </text>
<text text-anchor="start" x="316.5" y="-55.8" font-family="arial" font-size="14.00">SL_MBT_DIA_BI_EVR_2_:1:OF</text>
<text text-anchor="start" x="516.5" y="-55.8" font-family="arial" font-size="14.00"> &#160;&#160;&#160;&#160;1:PK &#160;&#160;&#160;</text>
<text text-anchor="start" x="584.5" y="-55.8" font-family="arial" font-size="14.00">EVMMaster:6:RXTX6</text>
<polygon fill="#000000" stroke="transparent" points="314.5,-48 314.5,-50 717.5,-50 717.5,-48 314.5,-48"/>
<polygon fill="#ff66cc" stroke="transparent" points="314.5,-46 314.5,-48 717.5,-48 717.5,-46 314.5,-46"/>
<polygon fill="#000000" stroke="transparent" points="314.5,-44 314.5,-46 717.5,-46 717.5,-44 314.5,-44"/>
<text text-anchor="start" x="316.5" y="-30.8" font-family="arial" font-size="14.00">SL_MBT_DIA_BI_EVR_2_:1:OF</text>
<text text-anchor="start" x="516.5" y="-30.8" font-family="arial" font-size="14.00"> &#160;&#160;&#160;&#160;2:PK &#160;&#160;&#160;</text>
<text text-anchor="start" x="584.5" y="-30.8" font-family="arial" font-size="14.00">EVMMaster:6:RXTX6</text>
<polygon fill="#000000" stroke="transparent" points="314.5,-23 314.5,-25 717.5,-25 717.5,-23 314.5,-23"/>
<polygon fill="#ff66cc" stroke="transparent" points="314.5,-21 314.5,-23 717.5,-23 717.5,-21 314.5,-21"/>
<polygon fill="#000000" stroke="transparent" points="314.5,-19 314.5,-21 717.5,-21 717.5,-19 314.5,-19"/>
<text text-anchor="start" x="412.5" y="-5.8" font-family="arial" font-size="14.00"> </text>
</g>
<!-- SL_MBT_DIA_BI_EVR_2_&#45;&#45;OF1 -->
<g id="edge1" class="edge">
<title>SL_MBT_DIA_BI_EVR_2_:e&#45;&#45;OF1:w</title>
<path fill="none" stroke="#000000" stroke-width="2" d="M170,-33C235.44,-33.42 251,-45.42 314,-45"/>
<path fill="none" stroke="#ff66cc" stroke-width="2" d="M170,-35C234.22,-35 249.78,-47 314,-47"/>
<path fill="none" stroke="#000000" stroke-width="2" d="M170,-37C233,-36.58 248.56,-48.58 314,-49"/>
</g>
<!-- SL_MBT_DIA_BI_EVR_2_&#45;&#45;OF1 -->
<g id="edge3" class="edge">
<title>SL_MBT_DIA_BI_EVR_2_:e&#45;&#45;OF1:w</title>
<path fill="none" stroke="#000000" stroke-width="2" d="M170,-33C232.97,-33.47 248.45,-20.47 314,-20"/>
<path fill="none" stroke="#ff66cc" stroke-width="2" d="M170,-35C234.26,-35 249.74,-22 314,-22"/>
<path fill="none" stroke="#000000" stroke-width="2" d="M170,-37C235.55,-36.53 251.03,-23.53 314,-24"/>
</g>
<!-- EVMMaster -->
<g id="node2" class="node">
<title>EVMMaster</title>
<polygon fill="#ffffff" stroke="black" points="942,-342 861,-342 861,-112 942,-112 942,-342"/>
<polygon fill="none" stroke="black" points="861.5,-319 861.5,-342 942.5,-342 942.5,-319 861.5,-319"/>
<text text-anchor="start" x="865.5" y="-326.8" font-family="arial" font-size="14.00">EVMMaster</text>
<polygon fill="none" stroke="black" points="861.5,-296 861.5,-319 902.5,-319 902.5,-296 861.5,-296"/>
<text text-anchor="start" x="866.5" y="-303.8" font-family="arial" font-size="14.00">OM4</text>
<polygon fill="none" stroke="black" points="902.5,-296 902.5,-319 942.5,-319 942.5,-296 902.5,-296"/>
<text text-anchor="start" x="907" y="-303.8" font-family="arial" font-size="14.00">8&#45;pin</text>
<polygon fill="none" stroke="black" points="861.5,-273 861.5,-296 884.5,-296 884.5,-273 861.5,-273"/>
<text text-anchor="start" x="869" y="-280.8" font-family="arial" font-size="14.00">1</text>
<polygon fill="none" stroke="black" points="884.5,-273 884.5,-296 942.5,-296 942.5,-273 884.5,-273"/>
<text text-anchor="start" x="891.5" y="-280.8" font-family="arial" font-size="14.00">RXTX1</text>
<polygon fill="none" stroke="black" points="861.5,-250 861.5,-273 884.5,-273 884.5,-250 861.5,-250"/>
<text text-anchor="start" x="869" y="-257.8" font-family="arial" font-size="14.00">2</text>
<polygon fill="none" stroke="black" points="884.5,-250 884.5,-273 942.5,-273 942.5,-250 884.5,-250"/>
<text text-anchor="start" x="891.5" y="-257.8" font-family="arial" font-size="14.00">RXTX2</text>
<polygon fill="none" stroke="black" points="861.5,-227 861.5,-250 884.5,-250 884.5,-227 861.5,-227"/>
<text text-anchor="start" x="869" y="-234.8" font-family="arial" font-size="14.00">3</text>
<polygon fill="none" stroke="black" points="884.5,-227 884.5,-250 942.5,-250 942.5,-227 884.5,-227"/>
<text text-anchor="start" x="891.5" y="-234.8" font-family="arial" font-size="14.00">RXTX3</text>
<polygon fill="none" stroke="black" points="861.5,-204 861.5,-227 884.5,-227 884.5,-204 861.5,-204"/>
<text text-anchor="start" x="869" y="-211.8" font-family="arial" font-size="14.00">4</text>
<polygon fill="none" stroke="black" points="884.5,-204 884.5,-227 942.5,-227 942.5,-204 884.5,-204"/>
<text text-anchor="start" x="891.5" y="-211.8" font-family="arial" font-size="14.00">RXTX4</text>
<polygon fill="none" stroke="black" points="861.5,-181 861.5,-204 884.5,-204 884.5,-181 861.5,-181"/>
<text text-anchor="start" x="869" y="-188.8" font-family="arial" font-size="14.00">5</text>
<polygon fill="none" stroke="black" points="884.5,-181 884.5,-204 942.5,-204 942.5,-181 884.5,-181"/>
<text text-anchor="start" x="891.5" y="-188.8" font-family="arial" font-size="14.00">RXTX5</text>
<polygon fill="none" stroke="black" points="861.5,-158 861.5,-181 884.5,-181 884.5,-158 861.5,-158"/>
<text text-anchor="start" x="869" y="-165.8" font-family="arial" font-size="14.00">6</text>
<polygon fill="none" stroke="black" points="884.5,-158 884.5,-181 942.5,-181 942.5,-158 884.5,-158"/>
<text text-anchor="start" x="891.5" y="-165.8" font-family="arial" font-size="14.00">RXTX6</text>
<polygon fill="none" stroke="black" points="861.5,-135 861.5,-158 884.5,-158 884.5,-135 861.5,-135"/>
<text text-anchor="start" x="869" y="-142.8" font-family="arial" font-size="14.00">7</text>
<polygon fill="none" stroke="black" points="884.5,-135 884.5,-158 942.5,-158 942.5,-135 884.5,-135"/>
<text text-anchor="start" x="891.5" y="-142.8" font-family="arial" font-size="14.00">RXTX7</text>
<polygon fill="none" stroke="black" points="861.5,-112 861.5,-135 884.5,-135 884.5,-112 861.5,-112"/>
<text text-anchor="start" x="869" y="-119.8" font-family="arial" font-size="14.00">8</text>
<polygon fill="none" stroke="black" points="884.5,-112 884.5,-135 942.5,-135 942.5,-112 884.5,-112"/>
<text text-anchor="start" x="891.5" y="-119.8" font-family="arial" font-size="14.00">RXTX8</text>
</g>
<!-- EVR SBCT -->
<g id="node3" class="node">
<title>EVR SBCT</title>
<polygon fill="#ffffff" stroke="black" points="161.5,-250.5 8.5,-250.5 8.5,-181.5 161.5,-181.5 161.5,-250.5"/>
<polygon fill="none" stroke="black" points="9,-227 9,-250 162,-250 162,-227 9,-227"/>
<text text-anchor="start" x="51.5" y="-234.8" font-family="arial" font-size="14.00">EVR SBCT</text>
<polygon fill="none" stroke="black" points="9,-204 9,-227 123,-227 123,-204 9,-204"/>
<text text-anchor="start" x="13" y="-211.8" font-family="arial" font-size="14.00">MTCA EVR 300U</text>
<polygon fill="none" stroke="black" points="123,-204 123,-227 162,-227 162,-204 123,-204"/>
<text text-anchor="start" x="127" y="-211.8" font-family="arial" font-size="14.00">1&#45;pin</text>
<polygon fill="none" stroke="black" points="9,-181 9,-204 92,-204 92,-181 9,-181"/>
<text text-anchor="start" x="40.5" y="-188.8" font-family="arial" font-size="14.00">OF</text>
<polygon fill="none" stroke="black" points="92,-181 92,-204 162,-204 162,-181 92,-181"/>
<text text-anchor="start" x="123" y="-188.8" font-family="arial" font-size="14.00">1</text>
</g>
<!-- OF2 -->
<g id="node6" class="node">
<title>OF2</title>
<polygon fill="#ffffff" stroke="black" points="669.5,-292 361.5,-292 361.5,-158 669.5,-158 669.5,-292"/>
<polygon fill="none" stroke="black" points="361.5,-269 361.5,-292 669.5,-292 669.5,-269 361.5,-269"/>
<text text-anchor="start" x="501.5" y="-276.8" font-family="arial" font-size="14.00">OF2</text>
<polygon fill="none" stroke="black" points="361.5,-246 361.5,-269 527.5,-269 527.5,-246 361.5,-246"/>
<text text-anchor="start" x="425" y="-253.8" font-family="arial" font-size="14.00">LC/LC</text>
<polygon fill="none" stroke="black" points="527.5,-246 527.5,-269 669.5,-269 669.5,-246 527.5,-246"/>
<text text-anchor="start" x="591" y="-253.8" font-family="arial" font-size="14.00">2x</text>
<text text-anchor="start" x="412" y="-232.8" font-family="arial" font-size="14.00"> </text>
<text text-anchor="start" x="363.5" y="-213.8" font-family="arial" font-size="14.00">EVR SBCT:1:OF</text>
<text text-anchor="start" x="468.5" y="-213.8" font-family="arial" font-size="14.00"> &#160;&#160;&#160;&#160;1:PK &#160;&#160;&#160;</text>
<text text-anchor="start" x="536.5" y="-213.8" font-family="arial" font-size="14.00">EVMMaster:5:RXTX5</text>
<polygon fill="#000000" stroke="transparent" points="361.5,-206 361.5,-208 669.5,-208 669.5,-206 361.5,-206"/>
<polygon fill="#ff66cc" stroke="transparent" points="361.5,-204 361.5,-206 669.5,-206 669.5,-204 361.5,-204"/>
<polygon fill="#000000" stroke="transparent" points="361.5,-202 361.5,-204 669.5,-204 669.5,-202 361.5,-202"/>
<text text-anchor="start" x="363.5" y="-188.8" font-family="arial" font-size="14.00">EVR SBCT:1:OF</text>
<text text-anchor="start" x="468.5" y="-188.8" font-family="arial" font-size="14.00"> &#160;&#160;&#160;&#160;2:PK &#160;&#160;&#160;</text>
<text text-anchor="start" x="536.5" y="-188.8" font-family="arial" font-size="14.00">EVMMaster:5:RXTX5</text>
<polygon fill="#000000" stroke="transparent" points="361.5,-181 361.5,-183 669.5,-183 669.5,-181 361.5,-181"/>
<polygon fill="#ff66cc" stroke="transparent" points="361.5,-179 361.5,-181 669.5,-181 669.5,-179 361.5,-179"/>
<polygon fill="#000000" stroke="transparent" points="361.5,-177 361.5,-179 669.5,-179 669.5,-177 361.5,-177"/>
<text text-anchor="start" x="412" y="-163.8" font-family="arial" font-size="14.00"> </text>
</g>
<!-- EVR SBCT&#45;&#45;OF2 -->
<g id="edge5" class="edge">
<title>EVR SBCT:e&#45;&#45;OF2:w</title>
<path fill="none" stroke="#000000" stroke-width="2" d="M163,-190C252,-190.29 273.56,-203.29 360.5,-203"/>
<path fill="none" stroke="#ff66cc" stroke-width="2" d="M163,-192C250.97,-192 272.53,-205 360.5,-205"/>
<path fill="none" stroke="#000000" stroke-width="2" d="M163,-194C249.94,-193.71 271.5,-206.71 360.5,-207"/>
</g>
<!-- EVR SBCT&#45;&#45;OF2 -->
<g id="edge7" class="edge">
<title>EVR SBCT:e&#45;&#45;OF2:w</title>
<path fill="none" stroke="#000000" stroke-width="2" d="M163,-190C249.97,-190.25 271.59,-178.25 360.5,-178"/>
<path fill="none" stroke="#ff66cc" stroke-width="2" d="M163,-192C250.94,-192 272.56,-180 360.5,-180"/>
<path fill="none" stroke="#000000" stroke-width="2" d="M163,-194C251.91,-193.75 273.53,-181.75 360.5,-182"/>
</g>
<!-- EVR BDM -->
<g id="node4" class="node">
<title>EVR BDM</title>
<polygon fill="#ffffff" stroke="black" points="161.5,-408.5 8.5,-408.5 8.5,-339.5 161.5,-339.5 161.5,-408.5"/>
<polygon fill="none" stroke="black" points="9,-385 9,-408 162,-408 162,-385 9,-385"/>
<text text-anchor="start" x="54" y="-392.8" font-family="arial" font-size="14.00">EVR BDM</text>
<polygon fill="none" stroke="black" points="9,-362 9,-385 123,-385 123,-362 9,-362"/>
<text text-anchor="start" x="13" y="-369.8" font-family="arial" font-size="14.00">MTCA EVR 300U</text>
<polygon fill="none" stroke="black" points="123,-362 123,-385 162,-385 162,-362 123,-362"/>
<text text-anchor="start" x="127" y="-369.8" font-family="arial" font-size="14.00">1&#45;pin</text>
<polygon fill="none" stroke="black" points="9,-339 9,-362 92,-362 92,-339 9,-339"/>
<text text-anchor="start" x="40.5" y="-346.8" font-family="arial" font-size="14.00">OF</text>
<polygon fill="none" stroke="black" points="92,-339 92,-362 162,-362 162,-339 92,-339"/>
<text text-anchor="start" x="123" y="-346.8" font-family="arial" font-size="14.00">1</text>
</g>
<!-- OF3 -->
<g id="node7" class="node">
<title>OF3</title>
<polygon fill="#ffffff" stroke="black" points="667.5,-450 363.5,-450 363.5,-316 667.5,-316 667.5,-450"/>
<polygon fill="none" stroke="black" points="363.5,-427 363.5,-450 667.5,-450 667.5,-427 363.5,-427"/>
<text text-anchor="start" x="501.5" y="-434.8" font-family="arial" font-size="14.00">OF3</text>
<polygon fill="none" stroke="black" points="363.5,-404 363.5,-427 527.5,-427 527.5,-404 363.5,-404"/>
<text text-anchor="start" x="426" y="-411.8" font-family="arial" font-size="14.00">LC/LC</text>
<polygon fill="none" stroke="black" points="527.5,-404 527.5,-427 667.5,-427 667.5,-404 527.5,-404"/>
<text text-anchor="start" x="590" y="-411.8" font-family="arial" font-size="14.00">2x</text>
<text text-anchor="start" x="412" y="-390.8" font-family="arial" font-size="14.00"> </text>
<text text-anchor="start" x="365.5" y="-371.8" font-family="arial" font-size="14.00">EVR BDM:1:OF</text>
<text text-anchor="start" x="466.5" y="-371.8" font-family="arial" font-size="14.00"> &#160;&#160;&#160;&#160;1:PK &#160;&#160;&#160;</text>
<text text-anchor="start" x="534.5" y="-371.8" font-family="arial" font-size="14.00">EVMMaster:2:RXTX2</text>
<polygon fill="#000000" stroke="transparent" points="363.5,-364 363.5,-366 667.5,-366 667.5,-364 363.5,-364"/>
<polygon fill="#ff66cc" stroke="transparent" points="363.5,-362 363.5,-364 667.5,-364 667.5,-362 363.5,-362"/>
<polygon fill="#000000" stroke="transparent" points="363.5,-360 363.5,-362 667.5,-362 667.5,-360 363.5,-360"/>
<text text-anchor="start" x="365.5" y="-346.8" font-family="arial" font-size="14.00">EVR BDM:1:OF</text>
<text text-anchor="start" x="466.5" y="-346.8" font-family="arial" font-size="14.00"> &#160;&#160;&#160;&#160;2:PK &#160;&#160;&#160;</text>
<text text-anchor="start" x="534.5" y="-346.8" font-family="arial" font-size="14.00">EVMMaster:2:RXTX2</text>
<polygon fill="#000000" stroke="transparent" points="363.5,-339 363.5,-341 667.5,-341 667.5,-339 363.5,-339"/>
<polygon fill="#ff66cc" stroke="transparent" points="363.5,-337 363.5,-339 667.5,-339 667.5,-337 363.5,-337"/>
<polygon fill="#000000" stroke="transparent" points="363.5,-335 363.5,-337 667.5,-337 667.5,-335 363.5,-335"/>
<text text-anchor="start" x="412" y="-321.8" font-family="arial" font-size="14.00"> </text>
</g>
<!-- EVR BDM&#45;&#45;OF3 -->
<g id="edge9" class="edge">
<title>EVR BDM:e&#45;&#45;OF3:w</title>
<path fill="none" stroke="#000000" stroke-width="2" d="M163,-348C252.88,-348.28 274.67,-361.28 362.5,-361"/>
<path fill="none" stroke="#ff66cc" stroke-width="2" d="M163,-350C251.85,-350 273.65,-363 362.5,-363"/>
<path fill="none" stroke="#000000" stroke-width="2" d="M163,-352C250.83,-351.72 272.62,-364.72 362.5,-365"/>
</g>
<!-- EVR BDM&#45;&#45;OF3 -->
<g id="edge11" class="edge">
<title>EVR BDM:e&#45;&#45;OF3:w</title>
<path fill="none" stroke="#000000" stroke-width="2" d="M163,-348C250.86,-348.25 272.71,-336.25 362.5,-336"/>
<path fill="none" stroke="#ff66cc" stroke-width="2" d="M163,-350C251.83,-350 273.67,-338 362.5,-338"/>
<path fill="none" stroke="#000000" stroke-width="2" d="M163,-352C252.79,-351.75 274.64,-339.75 362.5,-340"/>
</g>
<!-- OF1&#45;&#45;EVMMaster -->
<g id="edge2" class="edge">
<title>OF1:e&#45;&#45;EVMMaster:w</title>
<path fill="none" stroke="#000000" stroke-width="2" d="M717,-45C802.84,-47.38 779.08,-169.38 861,-167"/>
<path fill="none" stroke="#ff66cc" stroke-width="2" d="M717,-47C800.88,-47 777.12,-169 861,-169"/>
<path fill="none" stroke="#000000" stroke-width="2" d="M717,-49C798.92,-46.62 775.16,-168.62 861,-171"/>
</g>
<!-- OF1&#45;&#45;EVMMaster -->
<g id="edge4" class="edge">
<title>OF1:e&#45;&#45;EVMMaster:w</title>
<path fill="none" stroke="#000000" stroke-width="2" d="M717,-20C810.39,-22.51 771.48,-169.51 861,-167"/>
<path fill="none" stroke="#ff66cc" stroke-width="2" d="M717,-22C808.46,-22 769.54,-169 861,-169"/>
<path fill="none" stroke="#000000" stroke-width="2" d="M717,-24C806.52,-21.49 767.61,-168.49 861,-171"/>
</g>
<!-- OF2&#45;&#45;EVMMaster -->
<g id="edge6" class="edge">
<title>OF2:e&#45;&#45;EVMMaster:w</title>
<path fill="none" stroke="#000000" stroke-width="2" d="M670.5,-203C754.3,-203.3 775.08,-190.3 861,-190"/>
<path fill="none" stroke="#ff66cc" stroke-width="2" d="M670.5,-205C755.36,-205 776.14,-192 861,-192"/>
<path fill="none" stroke="#000000" stroke-width="2" d="M670.5,-207C756.42,-206.7 777.2,-193.7 861,-194"/>
</g>
<!-- OF2&#45;&#45;EVMMaster -->
<g id="edge8" class="edge">
<title>OF2:e&#45;&#45;EVMMaster:w</title>
<path fill="none" stroke="#000000" stroke-width="2" d="M670.5,-178C756.33,-178.27 777.16,-190.27 861,-190"/>
<path fill="none" stroke="#ff66cc" stroke-width="2" d="M670.5,-180C755.33,-180 776.17,-192 861,-192"/>
<path fill="none" stroke="#000000" stroke-width="2" d="M670.5,-182C754.34,-181.73 775.17,-193.73 861,-194"/>
</g>
<!-- OF3&#45;&#45;EVMMaster -->
<g id="edge10" class="edge">
<title>OF3:e&#45;&#45;EVMMaster:w</title>
<path fill="none" stroke="#000000" stroke-width="2" d="M668.5,-361C763.12,-363.01 762.38,-262.01 861,-260"/>
<path fill="none" stroke="#ff66cc" stroke-width="2" d="M668.5,-363C765.12,-363 764.38,-262 861,-262"/>
<path fill="none" stroke="#000000" stroke-width="2" d="M668.5,-365C767.12,-362.99 766.38,-261.99 861,-264"/>
</g>
<!-- OF3&#45;&#45;EVMMaster -->
<g id="edge12" class="edge">
<title>OF3:e&#45;&#45;EVMMaster:w</title>
<path fill="none" stroke="#000000" stroke-width="2" d="M668.5,-336C758.49,-337.78 767.03,-261.78 861,-260"/>
<path fill="none" stroke="#ff66cc" stroke-width="2" d="M668.5,-338C760.48,-338 769.02,-262 861,-262"/>
<path fill="none" stroke="#000000" stroke-width="2" d="M668.5,-340C762.47,-338.22 771.01,-262.22 861,-264"/>
</g>
</g>
</svg>
